Coordinates
version=1
nRows=27
nColumns=33
inDegrees=yes

Units are S.I. units (second, meters, Newtons, ...)
Angles are in degrees.

endheader
time	ground_thorax_rot_x	ground_thorax_rot_y	ground_thorax_rot_z	ground_thorax_tx	ground_thorax_ty	ground_thorax_tz	clav_prot_r	clav_elev_r	scapula_abduction_r	scapula_elevation_r	scapula_upward_rot_r	scapula_winging_r	shoulder_elv_r	plane_of_elev_r	axial_rot_r	elbow_flexion_r	pro_sup_r	wrist_flex_r	wrist_dev_r	clav_prot_l	clav_elev_l	scapula_abduction_l	scapula_elevation_l	scapula_upward_rot_l	scapula_winging_l	shoulder_elv_l	plane_of_elev_l	axial_rot_l	elbow_flexion_l	pro_sup_l	wrist_flex_l	wrist_dev_l	
2.9600	31.018652	26.579687	37.133737	-73.710471	831.417422	-48.026044	13.340678	34.632360	27.423109	45.000000	-45.000000	-5129.575239	-1725.865853	21.337323	-156.993895	1800.673098	-195.354335	14.660859	13.408584	-7.892743	-45.000000	-39.213399	45.000000	-45.000000	-3854.526309	-1888.378980	136.117472	-135.855259	349.846040	-316.863508	12.945446	-18.593517	
2.9700	31.129927	26.455664	36.846410	-75.717150	833.698610	-48.326523	13.333496	34.583790	27.429084	45.000000	-45.000000	-5129.695754	-1725.848094	21.376168	-157.237342	1800.602233	-196.043996	14.683524	13.442423	-7.723876	-45.000000	-39.357437	45.000000	-45.000000	-3854.398808	-1888.266400	136.088667	-135.775119	349.844656	-317.140744	12.992421	-18.712865	
2.9800	31.236566	26.336063	36.564226	-77.634878	835.969098	-48.635585	13.319608	34.532724	27.430452	45.000000	-45.000000	-5129.808733	-1725.832481	21.413291	-157.480325	1800.523101	-196.709575	14.702167	13.482133	-7.545537	-45.000000	-39.501948	45.000000	-45.000000	-3854.272082	-1888.158063	136.055183	-135.682653	349.840669	-317.400084	13.038629	-18.829992	
2.9900	31.337923	26.221105	36.290461	-79.465261	838.216838	-48.951294	13.299356	34.480479	27.428120	45.000000	-45.000000	-5129.915239	-1725.819003	21.448091	-157.714939	1800.437375	-197.341119	14.720530	13.526171	-7.362282	-45.000000	-39.642385	45.000000	-45.000000	-3854.146044	-1888.054066	136.018168	-135.579681	349.835318	-317.641249	13.084936	-18.945194	
3.0000	31.434609	26.111430	36.025024	-81.209779	840.428720	-49.271179	13.274598	34.430703	27.424416	45.000000	-45.000000	-5130.017386	-1725.810044	21.479964	-157.938496	1800.348246	-197.926115	14.742860	13.572813	-7.181841	-45.000000	-39.777189	45.000000	-45.000000	-3854.022932	-1887.954262	135.977992	-135.465146	349.826951	-317.863598	13.132366	-19.058794	
3.0100	31.525603	26.006843	35.770134	-82.869477	842.590694	-49.592164	13.243015	34.380632	27.415949	45.000000	-45.000000	-5130.112606	-1725.802287	21.508383	-158.144536	1800.255889	-198.452391	14.772839	13.621452	-6.998796	-45.000000	-39.906426	45.000000	-45.000000	-3853.901165	-1887.860544	135.934059	-135.338579	349.816410	-318.067336	13.181366	-19.170643	
3.0200	31.612037	25.906768	35.526550	-84.444940	844.688412	-49.910655	13.206498	34.335602	27.407306	45.000000	-45.000000	-5130.203565	-1725.799344	21.532974	-158.331494	1800.163913	-198.907702	14.813984	13.670425	-6.823316	-45.000000	-40.027166	45.000000	-45.000000	-3853.781670	-1887.773194	135.888208	-135.200075	349.803398	-318.252046	13.232247	-19.282241	
3.0300	31.693784	25.810960	35.294611	-85.936335	846.707742	-50.222527	13.162335	34.293151	27.395924	45.000000	-45.000000	-5130.287113	-1725.799092	21.552449	-158.493855	1800.072600	-199.283104	14.868192	13.719502	-6.650523	-45.000000	-40.140183	45.000000	-45.000000	-3853.662790	-1887.694440	135.839786	-135.049388	349.788816	-318.417387	13.284888	-19.393693	
3.0400	31.773332	25.717203	35.073230	-87.343477	848.635452	-50.523296	13.112241	34.258589	27.387403	45.000000	-45.000000	-5130.366129	-1725.804894	21.567281	-158.631812	1799.984499	-199.572716	14.936801	13.767896	-6.489820	-45.000000	-40.242474	45.000000	-45.000000	-3853.543835	-1887.625391	135.788980	-134.887315	349.774037	-318.562414	13.339593	-19.507849	
3.0500	31.849547	25.626489	34.860947	-88.665945	850.459618	-50.808331	13.054627	34.223345	27.371192	45.000000	-45.000000	-5130.434563	-1725.809832	21.577295	-158.741546	1799.893380	-199.776602	15.018830	13.817310	-6.330971	-45.000000	-40.339012	45.000000	-45.000000	-3853.424820	-1887.569888	135.735281	-134.718468	349.759573	-318.686369	13.394900	-19.622318	
3.0600	31.922117	25.539568	34.659019	-89.903122	852.169796	-51.073139	12.993616	34.191977	27.348712	45.000000	-45.000000	-5130.495679	-1725.816342	21.584348	-158.825925	1799.801158	-199.897442	15.112122	13.866131	-6.185278	-45.000000	-40.426798	45.000000	-45.000000	-3853.309916	-1887.526872	135.681980	-134.546842	349.744865	-318.787816	13.449073	-19.737238	
3.0700	31.989151	25.459202	34.466495	-91.054675	853.757171	-51.313575	12.930682	34.158154	27.312955	45.000000	-45.000000	-5130.545202	-1725.819927	21.587776	-158.884608	1799.706084	-199.941586	15.212973	13.913634	-6.049536	-45.000000	-40.508455	45.000000	-45.000000	-3853.203066	-1887.497778	135.629392	-134.378162	349.729135	-318.866059	13.500831	-19.850694	
3.0800	32.053243	25.382597	34.280670	-92.120737	855.214278	-51.525904	12.870179	34.126327	27.265806	45.000000	-45.000000	-5130.586289	-1725.821487	21.592511	-158.920211	1799.610548	-199.915453	15.318139	13.958376	-5.934320	-45.000000	-40.579702	45.000000	-45.000000	-3853.108604	-1887.482073	135.578187	-134.217078	349.711460	-318.920664	13.549314	-19.963741	
3.0900	32.108058	25.317045	34.111262	-93.102679	856.535287	-51.706828	12.813447	34.092005	27.207189	45.000000	-45.000000	-5130.618507	-1725.822040	21.592136	-158.941640	1799.513709	-199.827286	15.426430	13.994317	-5.837943	-45.000000	-40.640544	45.000000	-45.000000	-3853.029183	-1887.475611	135.532257	-134.070094	349.686550	-318.951275	13.593675	-20.072794	
3.1000	32.154946	25.261107	33.959070	-94.002389	857.714857	-51.853331	12.761044	34.056904	27.135474	45.000000	-45.000000	-5130.641847	-1725.820113	21.590126	-158.951379	1799.416599	-199.682474	15.535156	14.021418	-5.761179	-45.000000	-40.690354	45.000000	-45.000000	-3852.965440	-1887.478056	135.494961	-133.941174	349.657317	-318.959458	13.631929	-20.178306	
3.1100	32.189110	25.219207	33.836566	-94.823145	858.749262	-51.962852	12.712182	34.021613	27.059840	45.000000	-45.000000	-5130.659863	-1725.822889	21.581211	-158.961530	1799.324567	-199.488394	15.645752	14.030221	-5.702635	-45.000000	-40.723006	45.000000	-45.000000	-3852.911265	-1887.482583	135.466222	-133.828518	349.622813	-318.946544	13.665692	-20.282081	
3.1200	32.217105	25.184483	33.733959	-95.568626	859.635739	-52.033361	12.665237	33.989090	26.976534	45.000000	-45.000000	-5130.668699	-1725.825739	21.570712	-158.969765	1799.236831	-199.246882	15.754070	14.029865	-5.660383	-45.000000	-40.744019	45.000000	-45.000000	-3852.865583	-1887.498554	135.448226	-133.728696	349.592813	-318.915597	13.691587	-20.386437	
3.1300	32.230708	25.164038	33.667509	-96.243308	860.373707	-52.063742	12.619105	33.957126	26.894681	45.000000	-45.000000	-5130.674061	-1725.838746	21.554137	-158.989275	1799.162959	-198.966937	15.864357	14.003768	-5.629638	-45.000000	-40.743642	45.000000	-45.000000	-3852.820700	-1887.512290	135.435316	-133.639826	349.559173	-318.866610	13.714113	-20.492454	
3.1400	32.237065	25.151405	33.621633	-96.850951	860.963646	-52.053985	12.573653	33.929449	26.805786	45.000000	-45.000000	-5130.667404	-1725.851453	21.534221	-159.011044	1799.097828	-198.648093	15.968283	13.974177	-5.611841	-45.000000	-40.737499	45.000000	-45.000000	-3852.783686	-1887.542882	135.436543	-133.559860	349.535218	-318.802120	13.724973	-20.599014	
3.1500	32.235203	25.145015	33.598988	-97.395258	861.408482	-52.005672	12.528691	33.903223	26.718270	45.000000	-45.000000	-5130.658539	-1725.874366	21.517585	-159.043664	1799.048271	-198.302525	16.073889	13.922389	-5.603633	-45.000000	-40.712441	45.000000	-45.000000	-3852.745049	-1887.576297	135.434432	-133.488400	349.509397	-318.720592	13.733324	-20.713223	
3.1600	32.231493	25.141157	33.583595	-97.879091	861.712632	-51.922058	12.485764	33.884949	26.623852	45.000000	-45.000000	-5130.636493	-1725.891031	21.498629	-159.077237	1799.000064	-197.930893	16.169400	13.884733	-5.612056	-45.000000	-40.692746	45.000000	-45.000000	-3852.720054	-1887.636055	135.448209	-133.424111	349.496286	-318.623304	13.724119	-20.827288	
3.1700	32.222314	25.141940	33.585550	-98.304959	861.882458	-51.808189	12.444018	33.865621	26.534396	45.000000	-45.000000	-5130.616690	-1725.919750	21.485788	-159.124215	1798.966317	-197.549734	16.269569	13.824087	-5.627012	-45.000000	-40.656467	45.000000	-45.000000	-3852.693406	-1887.694833	135.451645	-133.373243	349.475201	-318.505547	13.713118	-20.950373	
3.1800	32.209840	25.148947	33.597469	-98.674614	861.925266	-51.670621	12.406062	33.855073	26.438303	45.000000	-45.000000	-5130.584991	-1725.938169	21.468671	-159.175681	1798.928967	-197.157034	16.361038	13.782582	-5.656811	-45.000000	-40.625859	45.000000	-45.000000	-3852.682526	-1887.773335	135.474141	-133.335247	349.466034	-318.368446	13.678527	-21.069847	
3.1900	32.197145	25.156554	33.618229	-98.990039	861.849733	-51.516967	12.370071	33.839610	26.348323	45.000000	-45.000000	-5130.559615	-1725.968363	21.465649	-159.241182	1798.902811	-196.766782	16.462472	13.715593	-5.687014	-45.000000	-40.576919	45.000000	-45.000000	-3852.663470	-1887.847190	135.479042	-133.315380	349.451170	-318.207115	13.643348	-21.202523	
3.2000	32.177924	25.173665	33.653425	-99.253457	861.665635	-51.355268	12.338412	33.832248	26.253697	45.000000	-45.000000	-5130.523519	-1725.987006	21.456927	-159.315583	1798.873443	-196.374903	16.559196	13.663092	-5.728747	-45.000000	-40.528221	45.000000	-45.000000	-3852.658417	-1887.928934	135.504267	-133.313892	349.446135	-318.023682	13.580790	-21.328715	
3.2100	32.159263	25.188972	33.693491	-99.467673	861.383268	-51.193020	12.306218	33.813382	26.175828	45.000000	-45.000000	-5130.497893	-1726.025593	21.463146	-159.406064	1798.862634	-195.992597	16.670102	13.574819	-5.763464	-45.000000	-40.461172	45.000000	-45.000000	-3852.635906	-1888.002346	135.504457	-133.336542	349.434697	-317.815294	13.524729	-21.472134	
3.2200	32.131335	25.215456	33.750481	-99.636149	861.013474	-51.036528	12.279930	33.805392	26.092254	45.000000	-45.000000	-5130.458422	-1726.051096	21.462056	-159.504174	1798.849680	-195.610260	16.775554	13.503967	-5.808292	-45.000000	-40.394195	45.000000	-45.000000	-3852.630027	-1888.078682	135.529637	-133.381473	349.430482	-317.587270	13.438763	-21.603664	
